HIERARCHY
ROOT hip
{
  OFFSET 0 0 0
  CHANNELS 6 Xposition Yposition Zposition Zrotation Yrotation Xrotation
  JOINT abdomen
  {
    OFFSET 0 20.6881 -0.73152
    CHANNELS 3 Zrotation Xrotation Yrotation
    JOINT chest
    {
      OFFSET 0 11.7043 -0.48768
      CHANNELS 3 Zrotation Xrotation Yrotation
      JOINT neck
      {
        OFFSET 0 22.1894 -2.19456
        CHANNELS 3 Zrotation Xrotation Yrotation
        JOINT head
        {
          OFFSET -0.24384 7.07133 1.2192
          CHANNELS 3 Zrotation Xrotation Yrotation
          JOINT leftEye
          {
            OFFSET 4.14528 8.04674 8.04672
            CHANNELS 3 Zrotation Xrotation Yrotation
            End Site
            {
              OFFSET 1 0 0
            }
          }
          JOINT rightEye
          {
            OFFSET -3.6576 8.04674 8.04672
            CHANNELS 3 Zrotation Xrotation Yrotation
            End Site
            {
              OFFSET 1 0 0
            }
          }
        }
      }
      JOINT rCollar
      {
        OFFSET -2.68224 19.2634 -4.8768
        CHANNELS 3 Zrotation Xrotation Yrotation
        JOINT rShldr
        {
          OFFSET -8.77824 -1.95073 1.46304
          CHANNELS 3 Zrotation Xrotation Yrotation
          JOINT rForeArm
          {
            OFFSET -28.1742 -1.7115 0.48768
            CHANNELS 3 Zrotation Xrotation Yrotation
            JOINT rHand
            {
              OFFSET -22.5879 0.773209 7.07136
              CHANNELS 3 Zrotation Xrotation Yrotation
              JOINT rThumb1
              {
                OFFSET -1.2192 -0.487915 3.41376
                CHANNELS 3 Zrotation Xrotation Yrotation
                JOINT rThumb2
                {
                  OFFSET -3.37035 -0.52449 3.41376
                  CHANNELS 3 Zrotation Xrotation Yrotation
                  End Site
                  {
                    OFFSET -1.78271 -1.18214 1.43049
                  }
                }
              }
              JOINT rIndex1
              {
                OFFSET -7.75947 0.938293 5.60832
                CHANNELS 3 Zrotation Xrotation Yrotation
                JOINT rIndex2
                {
                  OFFSET -2.54057 -0.884171 1.56538
                  CHANNELS 3 Zrotation Xrotation Yrotation
                  End Site
                  {
                    OFFSET -1.62519 -0.234802 1.16502
                  }
                }
              }
              JOINT rMid1
              {
                OFFSET -8.24714 1.18213 3.41376
                CHANNELS 3 Zrotation Xrotation Yrotation
                JOINT rMid2
                {
                  OFFSET -3.10165 -0.590103 1.0647
                  CHANNELS 3 Zrotation Xrotation Yrotation
                  End Site
                  {
                    OFFSET -2.48547 -0.328903 0.83742
                  }
                }
              }
              JOINT rRing1
              {
                OFFSET -8.82822 0.546677 1.51678
                CHANNELS 3 Zrotation Xrotation Yrotation
                JOINT rRing2
                {
                  OFFSET -2.60934 -0.819778 -0.0198488
                  CHANNELS 3 Zrotation Xrotation Yrotation
                  End Site
                  {
                    OFFSET -2.33842 -0.294052 0.168128
                  }
                }
              }
              JOINT rPinky1
              {
                OFFSET -8.27202 -0.0477905 -0.4584
                CHANNELS 3 Zrotation Xrotation Yrotation
                JOINT rPinky2
                {
                  OFFSET -1.82734 -0.647385 -0.700984
                  CHANNELS 3 Zrotation Xrotation Yrotation
                  End Site
                  {
                    OFFSET -1.69225 -0.51767 -0.607171
                  }
                }
              }
            }
          }
        }
      }
      JOINT lCollar
      {
        OFFSET 2.68224 19.2634 -4.8768
        CHANNELS 3 Zrotation Xrotation Yrotation
        JOINT lShldr
        {
          OFFSET 8.77824 -1.95073 1.46304
          CHANNELS 3 Zrotation Xrotation Yrotation
          JOINT lForeArm
          {
            OFFSET 28.1742 -1.7115 0.48768
            CHANNELS 3 Zrotation Xrotation Yrotation
            JOINT lHand
            {
              OFFSET 22.5879 0.773209 7.07136
              CHANNELS 3 Zrotation Xrotation Yrotation
              JOINT lThumb1
              {
                OFFSET 1.2192 -0.487915 3.41376
                CHANNELS 3 Zrotation Xrotation Yrotation
                JOINT lThumb2
                {
                  OFFSET 3.37035 -0.52449 3.41376
                  CHANNELS 3 Zrotation Xrotation Yrotation
                  End Site
                  {
                    OFFSET 1.78271 -1.18214 1.43049
                  }
                }
              }
              JOINT lIndex1
              {
                OFFSET 7.75947 0.938293 5.60832
                CHANNELS 3 Zrotation Xrotation Yrotation
                JOINT lIndex2
                {
                  OFFSET 2.54057 -0.884171 1.56538
                  CHANNELS 3 Zrotation Xrotation Yrotation
                  End Site
                  {
                    OFFSET 1.62519 -0.234802 1.16502
                  }
                }
              }
              JOINT lMid1
              {
                OFFSET 8.24714 1.18213 3.41376
                CHANNELS 3 Zrotation Xrotation Yrotation
                JOINT lMid2
                {
                  OFFSET 3.10165 -0.590103 1.0647
                  CHANNELS 3 Zrotation Xrotation Yrotation
                  End Site
                  {
                    OFFSET 2.48547 -0.328903 0.83742
                  }
                }
              }
              JOINT lRing1
              {
                OFFSET 8.82822 0.546677 1.51678
                CHANNELS 3 Zrotation Xrotation Yrotation
                JOINT lRing2
                {
                  OFFSET 2.60934 -0.819778 -0.0198488
                  CHANNELS 3 Zrotation Xrotation Yrotation
                  End Site
                  {
                    OFFSET 2.33842 -0.294052 0.168128
                  }
                }
              }
              JOINT lPinky1
              {
                OFFSET 8.27202 -0.0477905 -0.4584
                CHANNELS 3 Zrotation Xrotation Yrotation
                JOINT lPinky2
                {
                  OFFSET 1.82734 -0.647385 -0.700984
                  CHANNELS 3 Zrotation Xrotation Yrotation
                  End Site
                  {
                    OFFSET 1.69225 -0.51767 -0.607171
                  }
                }
              }
            }
          }
        }
      }
    }
  }
  JOINT rButtock
  {
    OFFSET -8.77824 4.35084 1.2192
    CHANNELS 3 Zrotation Xrotation Yrotation
    JOINT rThigh
    {
      OFFSET 0 -1.70687 -2.19456
      CHANNELS 3 Zrotation Xrotation Yrotation
      JOINT rShin
      {
        OFFSET 0 -36.8199 0.73152
        CHANNELS 3 Zrotation Xrotation Yrotation
        JOINT rFoot
        {
          OFFSET 0.73152 -45.1104 -5.12064
          CHANNELS 3 Zrotation Xrotation Yrotation
          End Site
          {
            OFFSET -1.1221 -3.69964 12.103
          }
        }
      }
    }
  }
  JOINT lButtock
  {
    OFFSET 8.77824 4.35084 1.2192
    CHANNELS 3 Zrotation Xrotation Yrotation
    JOINT lThigh
    {
      OFFSET 0 -1.70687 -2.19456
      CHANNELS 3 Zrotation Xrotation Yrotation
      JOINT lShin
      {
        OFFSET 0 -36.8199 0.73152
        CHANNELS 3 Zrotation Xrotation Yrotation
        JOINT lFoot
        {
          OFFSET -0.73152 -45.1104 -5.12064
          CHANNELS 3 Zrotation Xrotation Yrotation
          End Site
          {
            OFFSET 1.1221 -3.69964 12.103
          }
        }
      }
    }
  }
}
MOTION
Frames:	4
Frame Time:	0.00833333
13.9241 86.3992 2.84366 -177.58 -26.0077 -169.491 4.03617 -12.0415 7.65697 -3.06049 -19.4664 0.684709 10.3796 2.0419 8.69076 -19.4554 16.8227 14.093 -0.0 0.0 0.0 -0.0 0.0 0.0 -1.08107e-13 -1.49486e-13 -4.32456e-13 -7.50659 6.29304 -32.1034 -13.9038 -6.8771 25.3606 -1.80208 -35.1661 -5.68252 -1.86705e-09 2.48726e-10 -4.9561e-10 -3.20687e-09 4.02118e-10 -9.0849e-10 -1.86704e-09 2.48725e-10 -4.9561e-10 7.73091 5.47488 0.417314 -1.86705e-09 2.48726e-10 -4.9561e-10 2.90554 0.965183 0.102902 -1.86704e-09 2.48726e-10 -4.9561e-10 10.2786 0.731801 0.0259123 -1.86705e-09 2.48729e-10 -4.95597e-10 2.22167 -0.733487 -0.20892 -1.08178e-13 -1.49486e-13 -4.32655e-13 4.56366 -12.8071 21.0148 14.5113 -7.37455 -26.5887 0.266552 -14.5409 2.08909 -3.31475e-09 2.84217e-09 -1.02367e-09 -5.72243e-09 4.87218e-09 -1.80141e-09 -3.31475e-09 2.84217e-09 -1.02365e-09 -7.73091 5.47488 -0.417314 -3.31475e-09 2.84217e-09 -1.02367e-09 -2.90554 0.965183 -0.102902 -3.31475e-09 2.84217e-09 -1.02367e-09 -10.2786 0.731801 -0.0259123 -3.31474e-09 2.84217e-09 -1.02368e-09 -2.22167 -0.733487 0.20892 -2.03217e-16 0.0 -3.88251e-19 12.509 -4.28083 35.4746 -0.0711851 5.26514 -0.774262 -24.9036 -34.8058 -42.7046 2.03217e-16 0.0 3.88251e-19 2.49871 5.29887 -42.2894 -0.0471444 -3.99776 -0.345526 2.15869 -57.5352 2.25017
13.9042 86.3884 2.90227 -177.626 -26.0744 -169.417 4.00744 -12.1279 7.65733 -3.04019 -19.4891 0.678448 10.4025 1.97735 8.7024 -19.4407 16.9968 14.1162 -0.0 0.0 0.0 -0.0 0.0 0.0 -5.44058e-14 -1.21362e-14 -1.17804e-13 -6.73332 6.20949 -32.4593 -13.8476 -6.83221 25.2477 -1.86846 -35.6811 -5.79372 -6.97662e-10 -1.32317e-11 -5.00179e-10 -1.18762e-09 -3.70353e-11 -8.84278e-10 -6.9766e-10 -1.32316e-11 -5.00181e-10 7.73091 5.47488 0.417314 -6.97664e-10 -1.32305e-11 -5.00181e-10 2.90554 0.965183 0.102902 -6.97662e-10 -1.32315e-11 -5.00181e-10 10.2786 0.731801 0.0259123 -6.97671e-10 -1.32269e-11 -5.00171e-10 2.22167 -0.733487 -0.20892 -5.44662e-14 -1.21404e-14 -1.18009e-13 4.0168 -12.9193 21.405 14.4988 -7.36407 -26.5634 0.278925 -14.8303 2.13291 -1.02502e-09 6.42185e-10 -2.42209e-10 -1.77237e-09 1.1026e-09 -4.27765e-10 -1.02503e-09 6.42188e-10 -2.42188e-10 -7.73091 5.47488 -0.417314 -1.02502e-09 6.42181e-10 -2.4221e-10 -2.90554 0.965183 -0.102902 -1.02503e-09 6.42188e-10 -2.42206e-10 -10.2786 0.731801 -0.0259123 -1.02501e-09 6.42183e-10 -2.42219e-10 -2.22167 -0.733487 0.20892 -2.03217e-16 0.0 -3.88251e-19 12.4523 -4.37752 35.4728 -0.0715407 5.21309 -0.767457 -24.9159 -34.8213 -42.6724 2.03217e-16 0.0 3.88251e-19 2.45806 5.13981 -42.3142 -0.0475437 -4.00326 -0.348014 2.36185 -57.4158 2.48364
13.9038 86.3778 2.97631 -177.63 -26.1608 -169.33 3.90761 -12.1983 7.64215 -2.99459 -19.5255 0.672193 10.4667 1.84611 8.73989 -19.4687 17.249 14.1911 -0.0 0.0 0.0 -0.0 0.0 0.0 2.1901e-14 1.48597e-13 3.11853e-13 -6.06778 5.78196 -32.7904 -13.7841 -6.7817 25.1204 -1.89515 -35.8924 -5.83919 1.00427e-09 -4.04413e-10 -4.77511e-10 1.7498e-09 -6.92461e-10 -7.96901e-10 1.00427e-09 -4.04411e-10 -4.77517e-10 7.73091 5.47488 0.417314 1.00427e-09 -4.0441e-10 -4.77517e-10 2.90554 0.965183 0.102902 1.00427e-09 -4.04412e-10 -4.77515e-10 10.2786 0.731801 0.0259123 1.00426e-09 -4.04406e-10 -4.77509e-10 2.22167 -0.733487 -0.20892 2.18673e-14 1.48586e-13 3.11632e-13 3.51292 -13.1358 21.8705 14.4962 -7.36186 -26.558 0.279196 -14.8403 2.13438 2.32516e-09 -2.65457e-09 6.99102e-10 4.00896e-09 -4.54749e-09 1.2336e-09 2.32514e-09 -2.65455e-09 6.99131e-10 -7.73091 5.47488 -0.417314 2.32516e-09 -2.65457e-09 6.991e-10 -2.90554 0.965183 -0.102902 2.32514e-09 -2.65455e-09 6.99114e-10 -10.2786 0.731801 -0.0259123 2.32516e-09 -2.65457e-09 6.99094e-10 -2.22167 -0.733487 0.20892 -2.03217e-16 0.0 -3.88251e-19 12.3293 -4.43969 35.4694 -0.071745 5.09309 -0.753498 -24.9194 -34.8103 -42.6166 2.03217e-16 0.0 3.88251e-19 2.36077 4.93307 -42.1896 -0.0474066 -4.00745 -0.346002 2.89928 -57.0862 3.12396
13.8967 86.3695 3.06825 -177.683 -26.2303 -169.191 3.78059 -12.2634 7.61721 -2.93604 -19.5621 0.666097 10.548 1.6924 8.78629 -19.5251 17.5098 14.2849 -0.0 0.0 0.0 -0.0 0.0 0.0 8.4888e-14 2.7479e-13 6.63581e-13 -5.46182 5.26248 -33.1208 -13.7314 -6.73985 25.0151 -1.91037 -36.0247 -5.86686 2.42471e-09 -7.14369e-10 -4.08919e-10 4.19994e-09 -1.21067e-09 -6.38126e-10 2.42471e-09 -7.14366e-10 -4.08929e-10 7.73091 5.47488 0.417314 2.42471e-09 -7.14364e-10 -4.08929e-10 2.90554 0.965183 0.102902 2.42471e-09 -7.14369e-10 -4.08926e-10 10.2786 0.731801 0.0259123 2.4247e-09 -7.14361e-10 -4.08924e-10 2.22167 -0.733487 -0.20892 8.48779e-14 2.74775e-13 6.63344e-13 3.02957 -13.3945 22.351 14.4961 -7.36172 -26.5576 0.275133 -14.7541 2.12123 5.10542e-09 -5.37525e-09 1.44545e-09 8.80721e-09 -9.21068e-09 2.55219e-09 5.10539e-09 -5.37522e-09 1.44548e-09 -7.73091 5.47488 -0.417314 5.10542e-09 -5.37525e-09 1.44544e-09 -2.90554 0.965183 -0.102902 5.10539e-09 -5.37522e-09 1.44547e-09 -10.2786 0.731801 -0.0259123 5.10542e-09 -5.37525e-09 1.44544e-09 -2.22167 -0.733487 0.20892 -2.03217e-16 0.0 -3.88251e-19 12.1783 -4.48918 35.4627 -0.0717997 4.95392 -0.738341 -24.9265 -34.8029 -42.556 2.03217e-16 0.0 3.88251e-19 2.24071 4.7217 -42.0305 -0.0470505 -4.00857 -0.342739 3.46426 -56.7172 3.80474
